<svg width="16" height="12" viewBox="0 0 16 12" fill="none" xmlns="http://www.w3.org/2000/svg">
<path fill-rule="evenodd" clip-rule="evenodd" d="M15.1699 0.930084C15.3805 1.14102 15.4989 1.42696 15.4989 1.72508C15.4989 2.02321 15.3805 2.30915 15.1699 2.52008L6.02437 11.6656C5.9188 11.7711 5.79328 11.8545 5.65515 11.911C5.51702 11.9675 5.36903 11.9959 5.2198 11.9947C5.07056 11.9934 4.92307 11.9625 4.78591 11.9037C4.64875 11.8448 4.52466 11.7593 4.42087 11.6521L0.816374 7.92608C0.712707 7.8201 0.63101 7.69467 0.57598 7.55701C0.520949 7.41935 0.493671 7.27217 0.495712 7.12393C0.497754 6.97569 0.529075 6.82932 0.587876 6.69322C0.646677 6.55713 0.731797 6.434 0.838344 6.33091C0.944891 6.22782 1.07076 6.14681 1.20872 6.09253C1.34668 6.03825 1.49401 6.01178 1.64224 6.01463C1.79046 6.01748 1.93666 6.0496 2.07243 6.10914C2.20821 6.16869 2.33087 6.25448 2.43337 6.36158L5.24287 9.26558L13.5799 0.930084C13.7908 0.719408 14.0767 0.601074 14.3749 0.601074C14.673 0.601074 14.9589 0.719408 15.1699 0.930084Z" fill="#15D356"/>
</svg>
